<svg width="1109" height="188" viewBox="0 0 1109 188" fill="none" xmlns="http://www.w3.org/2000/svg">
<g opacity="0.83">
<g filter="url(#filter0_d_33_23)">
<line x1="14.0181" y1="164.018" x2="1094.02" y2="165.98" stroke="#595757" stroke-width="20" stroke-linecap="round"/>
</g>
</g>
<rect x="128.99" y="8.86801" width="4.62385" height="142.411" fill="#9C9B9B"/>
<path d="M159.917 40.8342L145.511 64.5438L116.533 64.5268L102.001 40.7381L116.407 17.0285L145.383 17.045L159.917 40.8342Z" fill="#FEBD2F" stroke="black" stroke-width="3"/>
<rect x="122.825" y="151.279" width="16.1835" height="4.72081" fill="#8C8C8C"/>
<rect x="322.51" y="8.86801" width="4.62385" height="142.411" fill="#9C9B9B"/>
<path d="M353.308 41.0397L338.634 65.19L309.536 65.3751L295.126 41.3858L309.8 17.2355L338.898 17.0504L353.308 41.0397Z" fill="#FEBD2F" stroke="black" stroke-width="3"/>
<rect x="316.344" y="151.279" width="16.1835" height="4.72081" fill="#8C8C8C"/>
<rect x="521.073" y="9.86801" width="4.62385" height="142.411" fill="#9C9B9B"/>
<path d="M551.98 41.8675L537.531 65.6473L508.534 65.6629L494.021 41.8416L508.47 18.0619L537.466 18.0458L551.98 41.8675Z" fill="#FEBD2F" stroke="black" stroke-width="3"/>
<rect x="514.908" y="152.279" width="16.1835" height="4.72081" fill="#8C8C8C"/>
<rect x="714.073" y="9.86801" width="4.62385" height="142.411" fill="#9C9B9B"/>
<path d="M744.98 41.8675L730.531 65.6473L701.534 65.6629L687.021 41.8416L701.47 18.0619L730.466 18.0458L744.98 41.8675Z" fill="#FEBD2F" stroke="black" stroke-width="3"/>
<rect x="707.908" y="152.279" width="16.1835" height="4.72081" fill="#8C8C8C"/>
<rect x="913.073" y="10.868" width="4.62385" height="142.411" fill="#9C9B9B"/>
<path d="M943.98 42.8675L929.531 66.6473L900.534 66.6629L886.021 42.8416L900.47 19.0619L929.466 19.0458L943.98 42.8675Z" fill="#FEBD2F" stroke="black" stroke-width="3"/>
<rect x="906.908" y="153.279" width="16.1835" height="4.72081" fill="#8C8C8C"/>
<path d="M132.933 34.168C132.72 38.3493 132.613 41.6773 132.613 44.152C132.613 45.432 132.645 46.648 132.709 47.8C132.88 47.928 133.21 47.992 133.701 47.992L134.437 47.96C134.736 47.9173 135.013 47.896 135.269 47.896C135.824 47.896 136.25 47.992 136.549 48.184C136.869 48.376 137.029 48.7493 137.029 49.304C137.029 49.8373 136.869 50.2533 136.549 50.552C136.25 50.8507 135.621 51 134.661 51C133.85 51 132.869 50.936 131.717 50.808C131.44 50.7867 131.173 50.7653 130.917 50.744C130.661 50.7227 130.426 50.712 130.213 50.712C129.04 50.7333 128.165 50.776 127.589 50.84C127.013 50.904 126.362 50.936 125.637 50.936C124.976 50.936 124.645 50.4347 124.645 49.432C124.645 48.472 125.264 47.992 126.501 47.992C126.693 47.992 127.002 48.0133 127.429 48.056C127.792 48.12 128.176 48.152 128.581 48.152C128.816 48.152 129.008 48.1413 129.157 48.12C129.178 46.6907 129.253 44.6107 129.381 41.88C129.509 38.68 129.573 36.312 129.573 34.776C129.466 34.7973 129.093 34.9467 128.453 35.224C127.472 35.7147 126.746 35.96 126.277 35.96C126.021 35.96 125.786 35.832 125.573 35.576C125.36 35.2987 125.253 34.9787 125.253 34.616C125.253 34.2533 125.477 33.9013 125.925 33.56C126.373 33.2187 127.098 32.7707 128.101 32.216C128.656 31.9387 129.189 31.6293 129.701 31.288C129.829 31.2027 130.01 31.1173 130.245 31.032C130.501 30.9467 130.693 30.904 130.821 30.904C131.376 30.904 131.877 31.0213 132.325 31.256C132.794 31.4693 133.029 31.7573 133.029 32.12L132.933 34.168Z" fill="black"/>
<path d="M322.548 47.672C323.273 47.7147 323.753 47.736 323.988 47.736C324.713 47.736 325.353 47.7253 325.908 47.704C326.484 47.6827 326.975 47.6613 327.38 47.64C328.425 47.576 329.364 47.544 330.196 47.544C331.007 47.544 331.604 47.7573 331.988 48.184C332.372 48.6107 332.564 49.176 332.564 49.88C332.564 50.2213 332.34 50.4987 331.892 50.712C331.444 50.904 330.985 51 330.516 51C330.111 51 329.268 50.9573 327.988 50.872C326.452 50.744 325.247 50.68 324.372 50.68C323.903 50.68 323.348 50.712 322.708 50.776C322.452 50.7973 322.143 50.8187 321.78 50.84C321.417 50.8613 321.012 50.872 320.564 50.872C319.711 50.872 319.06 50.7547 318.612 50.52C318.164 50.2853 317.94 49.8587 317.94 49.24C317.94 48.7067 318.153 48.1627 318.58 47.608C319.007 47.0533 319.604 46.392 320.372 45.624L321.14 44.856C321.481 44.4933 322.111 43.8747 323.028 43C324.543 41.6347 325.716 40.4293 326.548 39.384C327.401 38.3387 327.828 37.304 327.828 36.28C327.828 35.6187 327.508 35.0853 326.868 34.68C326.249 34.2533 325.535 34.04 324.724 34.04C323.487 34.04 322.591 34.3173 322.036 34.872C321.503 35.4053 321.236 36.184 321.236 37.208C321.236 37.464 321.087 37.6987 320.788 37.912C320.511 38.104 320.159 38.2 319.732 38.2C319.135 38.2 318.719 37.9867 318.484 37.56C318.249 37.1333 318.132 36.6107 318.132 35.992C318.132 35.0107 318.431 34.1467 319.028 33.4C319.625 32.632 320.436 32.0347 321.46 31.608C322.505 31.1813 323.657 30.968 324.916 30.968C325.812 30.968 326.74 31.192 327.7 31.64C328.681 32.0667 329.492 32.6533 330.132 33.4C330.793 34.1253 331.124 34.9253 331.124 35.8C331.124 37.1227 330.793 38.3813 330.132 39.576C329.471 40.7707 328.692 41.8373 327.796 42.776C326.921 43.6933 325.78 44.7813 324.372 46.04C323.689 46.616 323.081 47.16 322.548 47.672Z" fill="black"/>
<path d="M525.08 39.2C526.829 39.584 528.28 40.3413 529.432 41.472C530.584 42.6027 531.16 43.9147 531.16 45.408C531.16 46.304 530.947 47.1787 530.52 48.032C529.837 49.3973 528.813 50.4213 527.448 51.104C526.104 51.7867 524.547 52.128 522.776 52.128C521.667 52.128 520.675 51.9253 519.8 51.52C518.925 51.0933 518.061 50.528 517.208 49.824C516.888 49.5253 516.6 49.0987 516.344 48.544C516.109 47.9893 515.992 47.5307 515.992 47.168C515.992 46.6987 516.12 46.3253 516.376 46.048C516.653 45.7493 517.016 45.6 517.464 45.6C517.912 45.6 518.264 45.7067 518.52 45.92C518.776 46.1333 519.085 46.4747 519.448 46.944C519.789 47.392 520.099 47.7547 520.376 48.032C520.653 48.288 521.027 48.512 521.496 48.704C521.965 48.896 522.552 48.992 523.256 48.992C524.685 48.992 525.805 48.64 526.616 47.936C527.427 47.232 527.832 46.24 527.832 44.96C527.832 44.4693 527.565 43.9787 527.032 43.488C526.499 42.976 525.997 42.6133 525.528 42.4C525.251 42.2507 524.739 42.1013 523.992 41.952C522.989 41.696 522.232 41.4507 521.72 41.216C521.229 40.96 520.984 40.5653 520.984 40.032C520.984 39.6693 521.144 39.3173 521.464 38.976C521.784 38.6133 522.264 38.1653 522.904 37.632C523.544 37.0987 524.024 36.6613 524.344 36.32C524.664 35.9573 524.824 35.5947 524.824 35.232C524.419 35.1253 523.811 35.072 523 35.072C522.637 35.072 522.093 35.0933 521.368 35.136C520.728 35.1787 520.237 35.2 519.896 35.2C519.128 35.2 518.467 35.072 517.912 34.816C517.379 34.56 517.112 34.2293 517.112 33.824C517.112 33.376 517.155 33.024 517.24 32.768C517.325 32.4907 517.485 32.32 517.72 32.256C517.869 32.192 518.136 32.16 518.52 32.16C519.565 32.16 520.472 32.192 521.24 32.256C522.093 32.2987 522.744 32.32 523.192 32.32L525.848 32.288C528.024 32.288 529.112 32.8107 529.112 33.856C529.112 34.6453 528.707 35.5413 527.896 36.544C527.107 37.5253 526.168 38.4107 525.08 39.2Z" fill="black"/>
<path d="M714.552 31.8C714.552 32.8453 714.36 34.0613 713.976 35.448C713.613 36.8133 713.08 38.4987 712.376 40.504L711.64 42.712C712.003 42.776 712.376 42.808 712.76 42.808C713.421 42.808 714.413 42.744 715.736 42.616C717.059 42.488 718.008 42.424 718.584 42.424L718.552 38.904C718.509 36.472 718.488 34.68 718.488 33.528C718.488 32.0133 718.989 31.256 719.992 31.256C720.781 31.256 721.283 31.4587 721.496 31.864C721.731 32.2693 721.848 32.8773 721.848 33.688C721.848 34.52 721.784 35.8107 721.656 37.56C721.635 37.9013 721.603 38.4667 721.56 39.256C721.517 40.0453 721.496 40.728 721.496 41.304L721.528 42.328L722.168 42.296C722.68 42.2533 723.075 42.232 723.352 42.232C723.864 42.232 724.355 42.4027 724.824 42.744C725.293 43.064 725.528 43.448 725.528 43.896C725.528 44.4293 725.443 44.8453 725.272 45.144C725.123 45.4427 724.941 45.592 724.728 45.592C724.365 45.592 723.907 45.5493 723.352 45.464C723.224 45.464 723.032 45.4533 722.776 45.432C722.52 45.3893 722.275 45.368 722.04 45.368L721.496 45.4L721.528 49.72C721.528 50.168 721.379 50.5093 721.08 50.744C720.781 50.9787 720.44 51.096 720.056 51.096C719.587 51.096 719.171 50.9467 718.808 50.648C718.445 50.3493 718.264 49.976 718.264 49.528C718.264 48.0987 718.285 46.9787 718.328 46.168C718.349 45.976 718.36 45.7413 718.36 45.464C717.72 45.4427 716.611 45.5173 715.032 45.688C713.539 45.8587 712.408 45.944 711.64 45.944C710.659 45.944 709.827 45.8053 709.144 45.528C708.483 45.2507 708.152 44.8133 708.152 44.216C708.152 43.64 708.269 42.936 708.504 42.104C708.739 41.272 709.091 40.152 709.56 38.744C709.773 38.1893 709.933 37.7307 710.04 37.368C710.424 36.28 710.712 35.3627 710.904 34.616C711.096 33.848 711.309 32.92 711.544 31.832C711.629 31.4907 711.811 31.2347 712.088 31.064C712.365 30.8933 712.685 30.808 713.048 30.808C713.432 30.808 713.773 30.904 714.072 31.096C714.392 31.2667 714.552 31.5013 714.552 31.8Z" fill="black"/>
<path d="M913.08 35.232C912.931 35.8293 912.835 36.6187 912.792 37.6C912.749 38.4533 912.685 39.0933 912.6 39.52C913.219 39.264 913.805 39.104 914.36 39.04C914.915 38.9547 915.619 38.912 916.472 38.912C917.795 38.912 918.947 39.2213 919.928 39.84C920.909 40.4373 921.656 41.248 922.168 42.272C922.68 43.2747 922.936 44.352 922.936 45.504C922.936 45.952 922.787 46.56 922.488 47.328C922.189 48.0747 921.88 48.6507 921.56 49.056C920.813 50.0373 919.949 50.7947 918.968 51.328C917.987 51.84 916.92 52.096 915.768 52.096C914.893 52.096 914.093 51.9787 913.368 51.744C912.664 51.488 911.907 51.1467 911.096 50.72C910.264 50.272 909.656 49.8133 909.272 49.344C908.909 48.8533 908.728 48.2453 908.728 47.52C908.728 47.136 908.888 46.8267 909.208 46.592C909.549 46.336 909.869 46.208 910.168 46.208C910.36 46.208 910.531 46.2613 910.68 46.368C910.829 46.4747 911.075 46.688 911.416 47.008L912.216 47.776C912.728 48.2027 913.229 48.5227 913.72 48.736C914.232 48.9493 914.851 49.056 915.576 49.056C916.237 49.056 916.771 48.9707 917.176 48.8C917.987 48.48 918.616 48.064 919.064 47.552C919.533 47.04 919.768 46.2187 919.768 45.088C919.768 44 919.405 43.1573 918.68 42.56C917.955 41.9413 916.728 41.632 915 41.632C914.765 41.632 914.424 41.696 913.976 41.824C913.528 41.952 913.091 42.0907 912.664 42.24C911.64 42.5813 911.011 42.752 910.776 42.752C910.477 42.752 910.179 42.624 909.88 42.368C909.581 42.112 909.432 41.7707 909.432 41.344C909.816 38.7627 910.008 36.6187 910.008 34.912L909.976 34.112C909.933 33.728 909.912 33.408 909.912 33.152C909.912 32.768 910.115 32.48 910.52 32.288C910.947 32.0747 911.384 31.968 911.832 31.968C912.216 31.968 913.048 32.032 914.328 32.16L915.864 32.288C916.056 32.3093 916.344 32.32 916.728 32.32L917.912 32.288C918.147 32.2667 918.488 32.256 918.936 32.256C919.576 32.256 920.109 32.352 920.536 32.544C920.963 32.736 921.176 33.0453 921.176 33.472C921.176 34.1333 921.069 34.6133 920.856 34.912C920.643 35.2107 920.397 35.36 920.12 35.36C919.864 35.36 919.437 35.3173 918.84 35.232C918.051 35.1467 917.123 35.104 916.056 35.104C915.309 35.104 914.317 35.1467 913.08 35.232Z" fill="black"/>
<path d="M1102.18 158.413C1108.04 161.887 1108.07 170.355 1102.23 173.865L1082.29 185.866C1076.3 189.469 1068.67 185.171 1068.65 178.183L1068.57 154.308C1068.55 147.32 1076.15 142.974 1082.17 146.539L1102.18 158.413Z" fill="#6F6D6D"/>
<defs>
<filter id="filter0_d_33_23" x="0.018158" y="154.018" width="1108" height="29.9618" filterUnits="userSpaceOnUse" color-interpolation-filters="sRGB">
<feFlood flood-opacity="0" result="BackgroundImageFix"/>
<feColorMatrix in="SourceAlpha" type="matrix" values="0 0 0 0 0 0 0 0 0 0 0 0 0 0 0 0 0 0 127 0" result="hardAlpha"/>
<feOffset dy="4"/>
<feGaussianBlur stdDeviation="2"/>
<feComposite in2="hardAlpha" operator="out"/>
<feColorMatrix type="matrix" values="0 0 0 0 0 0 0 0 0 0 0 0 0 0 0 0 0 0 0.25 0"/>
<feBlend mode="normal" in2="BackgroundImageFix" result="effect1_dropShadow_33_23"/>
<feBlend mode="normal" in="SourceGraphic" in2="effect1_dropShadow_33_23" result="shape"/>
</filter>
</defs>
</svg>
